<?xml version="1.0" encoding="UTF-8"?>
<svg xmlns="http://www.w3.org/2000/svg" height="1032" width="1032" class="pyqrcode"><path transform="scale(8)" stroke="#000" class="pyqrline" d="M4 4.5h7m2 0h3m1 0h5m1 0h1m7 0h1m1 0h1m1 0h1m1 0h2m1 0h1m2 0h1m1 0h1m1 0h1m1 0h4m3 0h3m2 0h2m1 0h2m2 0h1m2 0h1m2 0h2m4 0h1m4 0h1m4 0h3m1 0h1m1 0h2m1 0h4m3 0h3m1 0h3m1 0h2m2 0h7m-121 1h1m5 0h1m1 0h3m1 0h3m1 0h1m2 0h1m2 0h1m1 0h1m1 0h2m1 0h2m2 0h1m3 0h1m2 0h2m4 0h1m2 0h1m2 0h5m2 0h3m2 0h1m1 0h2m2 0h1m1 0h7m1 0h2m3 0h2m2 0h3m1 0h1m4 0h6m5 0h2m1 0h1m1 0h1m5 0h1m-121 1h1m1 0h3m1 0h1m2 0h4m5 0h1m1 0h2m1 0h1m1 0h4m1 0h1m2 0h1m2 0h5m1 0h4m1 0h1m2 0h2m6 0h1m2 0h1m2 0h2m3 0h4m4 0h2m2 0h1m4 0h1m2 0h3m6 0h1m1 0h1m1 0h1m2 0h1m5 0h2m1 0h1m1 0h3m1 0h1m-121 1h1m1 0h3m1 0h1m3 0h2m1 0h9m2 0h1m2 0h1m4 0h2m1 0h2m3 0h3m1 0h5m2 0h2m2 0h3m2 0h5m2 0h1m2 0h1m1 0h1m1 0h4m1 0h1m1 0h2m3 0h2m3 0h1m1 0h1m3 0h1m4 0h1m1 0h1m2 0h1m1 0h4m1 0h1m1 0h3m1 0h1m-121 1h1m1 0h3m1 0h1m4 0h1m3 0h1m1 0h2m3 0h2m1 0h2m1 0h5m1 0h2m5 0h1m1 0h8m1 0h1m2 0h7m1 0h1m1 0h2m1 0h3m1 0h1m1 0h1m1 0h1m1 0h13m1 0h2m1 0h1m2 0h3m1 0h1m3 0h1m1 0h2m1 0h1m2 0h1m1 0h3m1 0h1m-121 1h1m5 0h1m1 0h2m1 0h1m1 0h2m1 0h3m3 0h2m4 0h1m3 0h1m1 0h3m1 0h1m3 0h2m2 0h2m4 0h2m2 0h1m3 0h1m8 0h1m1 0h1m2 0h2m1 0h4m2 0h2m3 0h4m1 0h1m3 0h6m2 0h1m4 0h2m2 0h1m5 0h1m-121 1h7m1 0h1m1 0h1m1 0h1m1 0h1m1 0h1m1 0h1m1 0h1m1 0h1m1 0h1m1 0h1m1 0h1m1 0h1m1 0h1m1 0h1m1 0h1m1 0h1m1 0h1m1 0h1m1 0h1m1 0h1m1 0h1m1 0h1m1 0h1m1 0h1m1 0h1m1 0h1m1 0h1m1 0h1m1 0h1m1 0h1m1 0h1m1 0h1m1 0h1m1 0h1m1 0h1m1 0h1m1 0h1m1 0h1m1 0h1m1 0h1m1 0h1m1 0h1m1 0h1m1 0h1m1 0h1m1 0h1m1 0h1m1 0h1m1 0h1m1 0h1m1 0h1m1 0h1m1 0h1m1 0h7m-113 1h2m2 0h3m6 0h2m1 0h5m3 0h2m1 0h1m2 0h1m3 0h1m3 0h1m4 0h2m2 0h2m3 0h1m1 0h5m1 0h2m2 0h2m3 0h5m1 0h2m3 0h1m1 0h2m6 0h1m1 0h4m1 0h1m3 0h3m-108 1h4m1 0h3m1 0h3m1 0h3m1 0h1m3 0h1m1 0h7m2 0h3m1 0h5m2 0h2m1 0h1m3 0h7m7 0h2m1 0h1m1 0h1m2 0h1m1 0h2m1 0h8m1 0h3m3 0h2m4 0h1m1 0h3m3 0h2m2 0h2m3 0h1m-117 1h3m4 0h1m1 0h1m1 0h2m1 0h4m3 0h1m2 0h1m2 0h1m1 0h1m1 0h2m1 0h3m3 0h2m3 0h4m3 0h4m1 0h2m2 0h7m1 0h2m1 0h4m3 0h3m1 0h5m1 0h2m2 0h1m1 0h1m2 0h1m1 0h2m1 0h1m1 0h1m1 0h1m1 0h2m1 0h1m-111 1h2m1 0h1m4 0h3m2 0h1m2 0h1m2 0h3m1 0h2m2 0h4m4 0h1m2 0h2m1 0h2m6 0h7m1 0h2m1 0h1m5 0h3m1 0h1m1 0h1m2 0h1m1 0h1m1 0h1m2 0h1m3 0h7m5 0h2m1 0h2m1 0h1m2 0h1m4 0h2m-118 1h2m2 0h1m7 0h3m2 0h1m3 0h2m1 0h6m7 0h1m1 0h1m1 0h2m1 0h1m3 0h1m1 0h1m3 0h1m3 0h6m4 0h1m1 0h3m2 0h1m4 0h1m1 0h1m2 0h1m1 0h4m2 0h1m2 0h2m1 0h4m1 0h1m2 0h4m1 0h1m1 0h2m1 0h2m-120 1h1m2 0h1m1 0h2m2 0h2m3 0h3m1 0h5m2 0h1m1 0h1m1 0h1m1 0h1m3 0h6m1 0h2m4 0h1m2 0h1m2 0h1m2 0h1m2 0h2m2 0h1m1 0h1m1 0h1m5 0h1m2 0h1m3 0h1m3 0h1m1 0h1m2 0h1m1 0h1m3 0h1m1 0h2m2 0h3m4 0h3m4 0h1m-117 1h1m1 0h4m2 0h3m1 0h2m1 0h4m1 0h1m2 0h1m1 0h1m3 0h3m8 0h1m8 0h1m1 0h3m1 0h2m1 0h2m1 0h2m1 0h1m1 0h1m6 0h3m3 0h3m1 0h2m1 0h2m2 0h1m1 0h1m2 0h1m2 0h2m2 0h3m2 0h1m1 0h2m1 0h1m1 0h2m-116 1h1m4 0h2m1 0h1m3 0h1m2 0h3m4 0h1m1 0h2m2 0h2m1 0h1m1 0h1m4 0h1m5 0h1m3 0h1m2 0h2m1 0h5m3 0h1m3 0h2m2 0h2m6 0h1m1 0h1m1 0h2m1 0h1m1 0h1m4 0h1m1 0h3m2 0h1m4 0h1m1 0h1m1 0h2m1 0h3m-114 1h4m1 0h1m2 0h1m3 0h1m2 0h3m1 0h3m1 0h2m5 0h1m3 0h5m3 0h1m1 0h2m1 0h1m1 0h2m1 0h2m1 0h1m1 0h3m1 0h8m4 0h1m2 0h2m1 0h1m4 0h1m1 0h1m1 0h1m1 0h1m7 0h1m1 0h2m1 0h1m6 0h2m3 0h2m1 0h1m1 0h1m-121 1h2m2 0h1m1 0h3m3 0h2m1 0h2m1 0h1m1 0h1m1 0h1m4 0h1m4 0h2m1 0h1m3 0h1m3 0h2m2 0h3m1 0h3m3 0h4m5 0h3m1 0h1m1 0h2m2 0h1m1 0h1m1 0h1m5 0h2m2 0h4m1 0h1m1 0h2m1 0h1m1 0h2m1 0h1m1 0h1m1 0h2m2 0h1m2 0h1m1 0h1m1 0h1m-121 1h3m2 0h1m3 0h1m1 0h4m1 0h1m1 0h3m1 0h1m3 0h2m1 0h2m1 0h1m2 0h2m1 0h3m1 0h2m1 0h1m1 0h1m2 0h1m3 0h1m1 0h1m2 0h1m1 0h2m3 0h2m1 0h1m6 0h1m2 0h1m3 0h2m1 0h1m1 0h1m1 0h1m1 0h2m1 0h4m3 0h1m2 0h1m1 0h1m1 0h3m2 0h2m-116 1h1m2 0h2m1 0h3m2 0h2m1 0h3m1 0h2m1 0h1m1 0h1m3 0h2m2 0h3m2 0h8m3 0h1m1 0h1m6 0h2m1 0h3m2 0h1m2 0h3m2 0h2m1 0h1m1 0h1m2 0h1m1 0h1m2 0h1m3 0h1m2 0h1m1 0h4m1 0h1m4 0h6m1 0h2m1 0h1m2 0h1m1 0h1m-119 1h1m2 0h1m3 0h1m2 0h1m1 0h2m2 0h1m1 0h1m1 0h1m2 0h1m6 0h1m1 0h1m3 0h1m2 0h2m2 0h2m1 0h1m1 0h5m1 0h2m3 0h2m3 0h2m1 0h1m3 0h2m1 0h1m2 0h2m1 0h1m1 0h4m1 0h1m1 0h2m1 0h1m1 0h1m4 0h4m1 0h1m3 0h3m6 0h1m1 0h1m-121 1h4m2 0h2m2 0h1m2 0h1m1 0h2m4 0h2m3 0h1m1 0h2m2 0h2m1 0h1m2 0h2m2 0h3m1 0h1m3 0h1m2 0h5m1 0h8m2 0h2m3 0h5m1 0h1m4 0h3m2 0h3m3 0h3m1 0h2m1 0h6m2 0h1m1 0h1m2 0h1m1 0h1m1 0h1m-120 1h1m3 0h1m1 0h5m1 0h1m2 0h1m1 0h2m1 0h1m4 0h3m3 0h1m2 0h1m1 0h3m1 0h2m1 0h2m8 0h2m2 0h1m6 0h2m1 0h1m1 0h1m4 0h6m1 0h6m3 0h2m2 0h6m1 0h3m1 0h1m3 0h1m1 0h4m3 0h1m-120 1h11m3 0h1m1 0h1m4 0h1m3 0h1m1 0h1m1 0h4m2 0h1m2 0h2m2 0h1m1 0h1m1 0h2m2 0h2m4 0h1m7 0h3m1 0h1m1 0h1m2 0h3m1 0h1m2 0h1m1 0h1m2 0h1m1 0h1m4 0h1m1 0h1m1 0h2m1 0h1m4 0h1m1 0h1m2 0h1m1 0h2m2 0h1m-113 1h1m4 0h1m1 0h1m2 0h3m2 0h1m1 0h2m4 0h1m1 0h3m1 0h1m4 0h2m1 0h2m1 0h4m3 0h2m4 0h1m2 0h1m4 0h2m1 0h1m1 0h1m2 0h3m2 0h1m3 0h1m6 0h4m6 0h3m1 0h2m1 0h1m4 0h2m3 0h2m1 0h1m-118 1h1m1 0h1m1 0h3m1 0h2m1 0h2m1 0h1m6 0h1m5 0h2m1 0h1m1 0h5m3 0h4m6 0h2m2 0h1m6 0h2m7 0h1m2 0h1m1 0h1m4 0h1m3 0h4m1 0h3m2 0h1m2 0h2m2 0h3m3 0h1m4 0h1m1 0h2m1 0h1m-115 1h2m2 0h2m2 0h5m1 0h2m1 0h1m1 0h2m1 0h1m1 0h2m1 0h2m1 0h2m4 0h1m1 0h2m2 0h1m7 0h6m3 0h3m1 0h1m5 0h5m2 0h7m1 0h2m1 0h2m3 0h1m1 0h3m1 0h1m1 0h1m3 0h3m1 0h1m2 0h2m-117 1h1m2 0h5m3 0h1m2 0h1m1 0h1m1 0h5m3 0h1m1 0h1m1 0h3m3 0h3m1 0h1m2 0h1m1 0h3m2 0h2m1 0h1m1 0h1m6 0h3m2 0h1m2 0h1m2 0h3m3 0h4m1 0h2m1 0h1m4 0h1m1 0h4m6 0h1m1 0h1m1 0h2m2 0h2m1 0h1m1 0h3m-118 1h1m2 0h1m3 0h1m1 0h3m3 0h3m3 0h1m1 0h6m5 0h1m1 0h1m3 0h7m1 0h3m3 0h2m3 0h1m1 0h2m2 0h1m3 0h2m1 0h1m1 0h1m1 0h2m1 0h1m1 0h1m2 0h1m1 0h4m1 0h1m4 0h1m1 0h1m1 0h2m1 0h1m4 0h1m5 0h1m1 0h3m-117 1h5m1 0h2m3 0h1m2 0h1m1 0h1m1 0h1m1 0h1m1 0h7m1 0h5m2 0h1m2 0h3m1 0h2m1 0h10m3 0h1m1 0h1m1 0h1m1 0h1m1 0h5m1 0h1m1 0h2m1 0h6m2 0h2m3 0h5m1 0h1m1 0h1m3 0h1m1 0h10m-119 1h1m2 0h1m3 0h2m1 0h1m1 0h1m2 0h2m1 0h1m1 0h2m3 0h3m3 0h3m1 0h1m2 0h1m3 0h2m4 0h2m1 0h3m1 0h1m3 0h2m2 0h1m4 0h1m1 0h1m2 0h2m2 0h1m1 0h2m1 0h2m3 0h3m1 0h1m1 0h3m4 0h5m1 0h4m1 0h1m3 0h3m-119 1h2m1 0h2m1 0h1m1 0h1m1 0h5m3 0h3m2 0h1m1 0h2m1 0h1m1 0h1m1 0h3m2 0h2m5 0h2m1 0h1m1 0h2m1 0h1m3 0h1m1 0h1m1 0h2m1 0h1m1 0h1m1 0h2m1 0h2m1 0h5m1 0h2m1 0h1m1 0h1m1 0h1m1 0h1m3 0h1m1 0h4m6 0h5m2 0h2m1 0h1m1 0h3m-119 1h1m2 0h2m3 0h3m1 0h2m1 0h2m1 0h1m1 0h2m1 0h1m1 0h1m1 0h2m3 0h3m1 0h3m1 0h1m1 0h2m2 0h3m1 0h3m2 0h2m3 0h1m2 0h1m2 0h1m4 0h2m2 0h1m1 0h1m1 0h1m1 0h1m1 0h2m3 0h4m6 0h1m1 0h1m1 0h2m3 0h1m2 0h3m3 0h1m1 0h2m-119 1h1m1 0h7m3 0h3m4 0h2m1 0h2m2 0h8m2 0h2m2 0h1m1 0h1m1 0h2m1 0h1m1 0h1m2 0h8m1 0h6m3 0h1m2 0h1m3 0h4m1 0h7m1 0h1m2 0h1m2 0h2m3 0h5m1 0h1m1 0h1m1 0h5m1 0h3m-119 1h4m6 0h1m1 0h2m3 0h2m3 0h1m1 0h3m2 0h2m1 0h1m1 0h1m1 0h1m3 0h1m3 0h3m1 0h2m2 0h2m1 0h1m1 0h3m2 0h2m3 0h2m1 0h1m1 0h1m3 0h4m3 0h2m2 0h2m5 0h4m1 0h4m1 0h1m1 0h3m1 0h1m6 0h1m-120 1h4m1 0h2m1 0h2m1 0h2m1 0h3m2 0h6m1 0h1m2 0h1m1 0h1m2 0h1m5 0h2m5 0h4m1 0h3m6 0h1m2 0h2m2 0h1m2 0h1m1 0h1m1 0h6m1 0h1m3 0h2m1 0h1m2 0h1m1 0h4m1 0h1m4 0h1m1 0h1m1 0h1m5 0h2m-116 1h2m2 0h1m2 0h2m2 0h3m1 0h1m4 0h4m1 0h2m17 0h1m6 0h1m1 0h4m1 0h1m2 0h1m3 0h8m1 0h1m1 0h4m1 0h1m3 0h1m1 0h1m1 0h3m1 0h1m1 0h1m2 0h1m1 0h4m1 0h1m4 0h5m3 0h2m-120 1h2m1 0h5m1 0h3m1 0h2m2 0h1m1 0h2m1 0h1m2 0h1m2 0h1m4 0h3m2 0h2m2 0h2m6 0h1m1 0h2m1 0h1m2 0h3m1 0h1m1 0h1m1 0h2m2 0h1m3 0h4m11 0h1m3 0h1m1 0h4m2 0h2m1 0h3m2 0h1m4 0h1m1 0h1m1 0h1m1 0h1m-117 1h1m2 0h5m3 0h2m2 0h1m7 0h2m3 0h1m3 0h1m2 0h4m1 0h2m3 0h2m4 0h3m1 0h2m1 0h2m2 0h1m1 0h1m1 0h1m2 0h1m1 0h3m1 0h3m2 0h1m4 0h2m1 0h2m1 0h2m3 0h2m2 0h4m2 0h1m4 0h4m-119 1h3m1 0h1m1 0h1m2 0h5m1 0h2m1 0h1m3 0h2m1 0h1m3 0h2m4 0h1m1 0h7m1 0h2m2 0h3m1 0h1m4 0h1m2 0h2m1 0h2m3 0h1m1 0h1m1 0h1m1 0h4m1 0h1m1 0h1m2 0h1m1 0h1m3 0h2m1 0h4m1 0h1m1 0h1m2 0h1m1 0h4m2 0h2m2 0h1m-116 1h2m5 0h1m1 0h1m1 0h1m3 0h2m1 0h1m1 0h1m1 0h1m2 0h1m1 0h5m1 0h3m3 0h4m1 0h1m1 0h1m2 0h2m1 0h1m2 0h3m1 0h1m1 0h1m3 0h1m3 0h1m1 0h2m1 0h2m1 0h1m5 0h2m3 0h3m6 0h1m1 0h3m2 0h1m1 0h1m1 0h3m1 0h2m3 0h3m-120 1h6m1 0h2m3 0h3m2 0h1m2 0h3m2 0h3m5 0h2m1 0h3m1 0h5m2 0h1m1 0h3m1 0h1m1 0h3m2 0h2m2 0h3m2 0h1m1 0h2m1 0h3m3 0h1m2 0h2m1 0h1m1 0h4m3 0h1m4 0h2m2 0h1m1 0h1m4 0h1m1 0h2m2 0h2m-120 1h1m2 0h1m1 0h1m1 0h4m3 0h3m4 0h2m1 0h3m1 0h1m5 0h1m4 0h3m1 0h1m5 0h1m1 0h1m1 0h1m5 0h1m1 0h1m1 0h1m2 0h6m1 0h2m5 0h1m1 0h3m2 0h2m1 0h3m4 0h1m3 0h3m4 0h1m3 0h1m3 0h3m-118 1h2m1 0h1m1 0h1m1 0h1m2 0h1m1 0h1m2 0h1m3 0h2m1 0h4m1 0h1m1 0h1m4 0h1m1 0h3m2 0h2m4 0h1m2 0h1m1 0h1m2 0h1m5 0h4m1 0h4m1 0h3m5 0h4m2 0h1m4 0h2m1 0h4m1 0h2m2 0h2m1 0h4m4 0h4m-118 1h2m1 0h2m3 0h4m2 0h1m1 0h1m1 0h1m2 0h1m1 0h2m1 0h6m2 0h1m1 0h3m2 0h1m2 0h2m3 0h1m2 0h2m1 0h3m2 0h4m4 0h1m4 0h2m1 0h2m1 0h1m4 0h2m3 0h3m1 0h1m4 0h1m1 0h4m6 0h3m1 0h2m-115 1h1m1 0h2m1 0h1m3 0h1m1 0h1m3 0h1m1 0h1m1 0h3m1 0h1m1 0h1m5 0h1m1 0h4m2 0h1m1 0h3m1 0h2m3 0h1m3 0h1m6 0h1m2 0h3m4 0h1m2 0h1m2 0h1m2 0h1m2 0h2m1 0h1m2 0h3m3 0h1m4 0h1m2 0h2m1 0h2m1 0h1m2 0h4m2 0h2m-121 1h2m3 0h1m1 0h1m1 0h2m2 0h1m2 0h1m1 0h1m1 0h1m1 0h1m1 0h3m3 0h1m1 0h2m1 0h1m1 0h1m7 0h2m1 0h3m2 0h4m6 0h2m2 0h1m1 0h2m1 0h2m2 0h1m1 0h4m3 0h1m3 0h1m1 0h2m3 0h2m5 0h1m1 0h1m1 0h5m-110 1h5m2 0h1m1 0h1m3 0h1m2 0h1m2 0h2m3 0h2m1 0h2m1 0h1m1 0h1m1 0h4m1 0h2m5 0h1m3 0h1m1 0h1m2 0h1m5 0h2m1 0h1m2 0h1m1 0h1m3 0h2m1 0h3m1 0h1m1 0h1m2 0h2m3 0h1m1 0h4m2 0h1m1 0h1m1 0h1m1 0h4m4 0h4m1 0h1m-120 1h2m1 0h3m5 0h1m2 0h2m4 0h1m6 0h3m2 0h1m1 0h1m1 0h3m1 0h3m2 0h1m2 0h1m1 0h1m1 0h1m1 0h1m3 0h1m3 0h4m2 0h4m1 0h1m2 0h1m2 0h1m1 0h1m2 0h2m1 0h1m1 0h3m6 0h4m3 0h1m1 0h1m1 0h4m2 0h1m1 0h3m-118 1h1m3 0h3m1 0h3m2 0h1m1 0h1m1 0h5m2 0h1m1 0h5m3 0h3m3 0h3m1 0h1m1 0h2m3 0h1m2 0h1m3 0h2m2 0h1m1 0h2m2 0h1m1 0h1m2 0h2m1 0h1m1 0h1m3 0h2m1 0h1m5 0h3m1 0h3m1 0h1m1 0h3m1 0h1m1 0h2m1 0h8m-120 1h1m2 0h1m1 0h1m4 0h2m1 0h1m2 0h1m2 0h1m1 0h1m1 0h1m2 0h1m2 0h2m2 0h3m1 0h2m2 0h1m1 0h1m3 0h1m2 0h1m3 0h3m1 0h4m1 0h2m5 0h2m1 0h1m1 0h6m4 0h2m1 0h5m3 0h3m2 0h2m1 0h1m3 0h2m6 0h1m-117 1h1m5 0h2m1 0h1m6 0h3m1 0h2m1 0h1m2 0h1m4 0h2m1 0h2m1 0h1m3 0h1m2 0h2m3 0h3m5 0h1m8 0h5m4 0h1m3 0h2m1 0h3m1 0h1m4 0h7m1 0h1m1 0h1m1 0h2m1 0h4m3 0h1m2 0h4m-120 1h2m3 0h1m1 0h2m1 0h1m1 0h1m1 0h3m2 0h1m1 0h4m7 0h1m1 0h2m1 0h4m2 0h3m1 0h4m1 0h2m5 0h1m2 0h1m6 0h1m1 0h9m4 0h2m3 0h3m1 0h1m1 0h1m1 0h7m3 0h1m2 0h4m1 0h1m2 0h1m-117 1h2m2 0h1m4 0h2m1 0h2m4 0h2m4 0h2m2 0h1m8 0h1m1 0h1m4 0h4m1 0h4m2 0h1m1 0h3m1 0h3m1 0h2m1 0h1m1 0h2m1 0h1m3 0h4m1 0h2m1 0h1m3 0h5m2 0h2m4 0h3m3 0h1m1 0h3m2 0h2m-115 1h2m6 0h3m2 0h2m1 0h3m4 0h3m6 0h3m1 0h3m1 0h1m1 0h2m5 0h1m1 0h1m1 0h1m2 0h1m3 0h6m2 0h3m1 0h1m2 0h2m1 0h2m3 0h1m1 0h1m2 0h1m1 0h10m1 0h4m1 0h1m4 0h2m1 0h2m-114 1h1m2 0h1m2 0h6m1 0h1m3 0h4m1 0h1m1 0h2m2 0h2m2 0h1m1 0h1m2 0h3m4 0h1m1 0h1m2 0h1m2 0h1m2 0h2m5 0h1m2 0h3m2 0h2m2 0h1m1 0h1m1 0h1m3 0h1m2 0h4m1 0h2m3 0h1m2 0h1m1 0h4m1 0h1m1 0h1m1 0h4m-116 1h2m2 0h3m1 0h3m1 0h2m1 0h6m1 0h1m5 0h3m1 0h8m1 0h1m1 0h4m2 0h2m2 0h2m1 0h2m1 0h1m1 0h1m1 0h3m1 0h1m1 0h1m2 0h1m1 0h3m1 0h1m2 0h2m1 0h1m1 0h3m1 0h1m4 0h1m1 0h4m1 0h1m3 0h5m1 0h1m2 0h1m1 0h1m-121 1h9m1 0h3m1 0h1m5 0h1m1 0h5m1 0h5m4 0h2m2 0h1m1 0h6m3 0h1m1 0h1m1 0h5m1 0h1m1 0h1m1 0h2m1 0h7m2 0h2m4 0h5m1 0h1m4 0h3m3 0h2m2 0h1m2 0h1m1 0h1m1 0h7m1 0h1m-121 1h1m2 0h2m3 0h2m1 0h3m2 0h1m6 0h1m2 0h3m3 0h1m1 0h2m1 0h4m1 0h3m1 0h1m3 0h2m2 0h3m3 0h2m2 0h1m1 0h3m4 0h2m3 0h4m2 0h1m3 0h2m1 0h2m2 0h4m3 0h1m3 0h3m1 0h1m1 0h1m3 0h3m-119 1h1m1 0h1m1 0h1m1 0h1m1 0h1m2 0h2m3 0h1m1 0h3m3 0h5m1 0h1m1 0h1m1 0h1m2 0h3m1 0h2m1 0h1m1 0h1m1 0h1m2 0h2m1 0h1m1 0h1m1 0h1m1 0h2m1 0h1m3 0h2m1 0h1m1 0h1m2 0h3m2 0h1m1 0h3m1 0h1m1 0h1m2 0h2m1 0h4m1 0h1m4 0h1m1 0h4m1 0h2m1 0h1m1 0h2m-115 1h2m3 0h1m1 0h1m1 0h2m2 0h1m1 0h3m3 0h1m1 0h1m1 0h1m3 0h2m2 0h2m2 0h4m2 0h2m2 0h2m3 0h2m3 0h3m1 0h2m1 0h1m1 0h3m1 0h1m1 0h1m7 0h2m3 0h4m1 0h1m4 0h1m1 0h4m1 0h1m4 0h3m3 0h1m1 0h1m-118 1h8m3 0h1m2 0h1m4 0h2m1 0h3m2 0h5m1 0h2m3 0h1m2 0h2m2 0h1m1 0h1m2 0h3m2 0h5m2 0h2m2 0h1m1 0h2m3 0h1m2 0h1m1 0h3m2 0h5m1 0h1m1 0h1m2 0h2m1 0h3m1 0h1m2 0h1m2 0h1m2 0h6m1 0h3m-121 1h5m7 0h1m1 0h4m1 0h1m1 0h1m1 0h2m1 0h2m4 0h3m1 0h2m3 0h1m1 0h4m2 0h2m7 0h6m3 0h3m3 0h3m4 0h2m3 0h1m1 0h1m1 0h1m1 0h3m1 0h5m2 0h2m1 0h1m2 0h1m2 0h1m1 0h2m2 0h2m-119 1h1m3 0h1m1 0h7m1 0h3m1 0h4m2 0h1m3 0h9m3 0h2m1 0h1m2 0h2m1 0h1m5 0h1m1 0h4m1 0h1m2 0h1m5 0h1m1 0h1m1 0h1m1 0h1m1 0h4m5 0h1m3 0h1m1 0h4m1 0h1m3 0h4m1 0h2m1 0h4m1 0h2m-118 1h1m1 0h1m2 0h1m1 0h1m3 0h4m2 0h1m4 0h3m1 0h2m1 0h6m2 0h2m4 0h5m2 0h2m2 0h1m1 0h1m2 0h2m1 0h1m2 0h2m1 0h2m2 0h1m1 0h2m2 0h2m1 0h1m1 0h1m4 0h1m1 0h1m2 0h1m1 0h1m1 0h2m1 0h1m1 0h1m2 0h1m3 0h5m2 0h1m1 0h1m1 0h1m-117 1h3m2 0h3m2 0h1m1 0h1m1 0h1m2 0h1m2 0h1m1 0h2m2 0h1m4 0h5m1 0h1m3 0h2m5 0h3m1 0h4m1 0h1m4 0h2m2 0h1m3 0h6m1 0h1m2 0h1m1 0h3m1 0h1m1 0h1m2 0h1m4 0h3m1 0h1m3 0h1m1 0h1m1 0h1m3 0h1m1 0h1m-119 1h1m1 0h2m5 0h1m2 0h1m4 0h1m1 0h4m1 0h3m2 0h2m2 0h4m1 0h2m2 0h1m3 0h1m3 0h3m3 0h1m1 0h1m1 0h1m2 0h1m2 0h5m3 0h2m1 0h2m4 0h2m4 0h3m3 0h1m1 0h1m3 0h2m1 0h1m3 0h2m1 0h1m1 0h2m1 0h2m-117 1h1m1 0h1m1 0h2m1 0h1m3 0h2m1 0h5m3 0h1m2 0h3m6 0h3m3 0h1m1 0h1m4 0h1m3 0h1m2 0h5m2 0h4m2 0h1m1 0h1m1 0h2m1 0h4m1 0h1m1 0h2m4 0h2m1 0h2m1 0h1m1 0h2m1 0h1m3 0h2m1 0h1m1 0h2m1 0h2m1 0h2m2 0h1m-118 1h2m1 0h1m2 0h6m3 0h1m1 0h1m1 0h1m1 0h1m1 0h6m1 0h1m1 0h1m3 0h3m2 0h2m1 0h5m4 0h2m1 0h2m1 0h1m2 0h1m1 0h2m1 0h1m4 0h5m3 0h1m5 0h2m2 0h1m5 0h2m1 0h1m1 0h2m1 0h1m3 0h4m3 0h1m1 0h3m-120 1h3m1 0h3m2 0h5m1 0h1m4 0h2m1 0h2m4 0h1m1 0h2m1 0h1m1 0h1m1 0h1m1 0h4m2 0h1m3 0h2m2 0h1m1 0h1m1 0h4m5 0h2m3 0h3m2 0h5m1 0h1m1 0h1m1 0h3m1 0h1m4 0h3m1 0h2m1 0h3m1 0h3m1 0h1m3 0h1m1 0h1m1 0h1m-121 1h1m1 0h2m3 0h1m2 0h1m1 0h3m1 0h1m2 0h2m1 0h3m1 0h1m1 0h2m1 0h4m1 0h1m1 0h1m2 0h2m1 0h1m4 0h2m3 0h1m1 0h2m2 0h2m1 0h2m4 0h4m2 0h1m2 0h1m3 0h1m2 0h1m1 0h1m1 0h2m1 0h4m1 0h3m1 0h2m1 0h1m1 0h2m3 0h1m1 0h2m1 0h3m-119 1h1m1 0h2m2 0h6m1 0h1m7 0h1m2 0h1m1 0h4m1 0h1m6 0h2m2 0h2m1 0h1m1 0h2m1 0h1m1 0h6m1 0h3m1 0h1m3 0h3m2 0h1m4 0h2m1 0h1m1 0h2m4 0h1m2 0h2m1 0h4m1 0h1m4 0h1m1 0h3m2 0h4m2 0h1m1 0h1m-119 1h4m2 0h1m3 0h2m2 0h1m6 0h1m2 0h3m1 0h3m1 0h2m1 0h1m3 0h2m1 0h3m2 0h3m1 0h2m3 0h2m5 0h3m1 0h3m1 0h1m2 0h2m1 0h2m1 0h1m3 0h2m1 0h4m5 0h7m6 0h4m2 0h3m-118 1h1m4 0h1m1 0h1m1 0h1m2 0h1m2 0h4m2 0h1m3 0h1m1 0h2m1 0h2m2 0h1m3 0h2m2 0h3m2 0h1m1 0h2m1 0h4m1 0h1m1 0h2m2 0h2m2 0h1m1 0h1m1 0h1m1 0h1m2 0h1m5 0h1m2 0h1m1 0h2m1 0h3m5 0h1m3 0h2m1 0h3m1 0h1m1 0h1m3 0h1m1 0h1m-117 1h4m1 0h1m1 0h4m1 0h1m2 0h2m3 0h2m3 0h2m1 0h2m1 0h1m3 0h1m1 0h1m3 0h1m4 0h2m2 0h1m2 0h3m1 0h1m2 0h3m2 0h2m2 0h2m1 0h4m7 0h1m1 0h1m1 0h4m2 0h1m1 0h1m2 0h3m1 0h2m2 0h4m1 0h4m-116 1h3m2 0h1m3 0h3m1 0h3m1 0h4m1 0h1m3 0h3m1 0h5m3 0h2m1 0h3m1 0h1m1 0h2m4 0h7m2 0h3m3 0h3m1 0h1m1 0h1m4 0h1m1 0h1m4 0h1m4 0h3m1 0h2m1 0h1m4 0h1m1 0h1m1 0h2m2 0h1m1 0h5m-119 1h1m3 0h1m2 0h3m2 0h1m2 0h1m1 0h1m1 0h1m2 0h1m1 0h1m2 0h1m2 0h1m1 0h2m1 0h4m7 0h1m1 0h1m1 0h2m1 0h1m3 0h2m1 0h7m1 0h3m1 0h1m2 0h5m1 0h2m1 0h2m4 0h2m1 0h1m4 0h1m1 0h4m6 0h2m1 0h1m2 0h1m1 0h2m-119 1h1m1 0h1m2 0h1m2 0h2m2 0h1m2 0h1m3 0h2m1 0h2m2 0h2m3 0h1m1 0h1m1 0h1m2 0h2m1 0h6m1 0h10m3 0h1m1 0h2m1 0h4m1 0h1m1 0h2m3 0h2m2 0h1m2 0h3m1 0h1m1 0h8m2 0h3m1 0h1m1 0h1m3 0h1m1 0h1m1 0h5m-121 1h4m3 0h1m4 0h1m8 0h1m2 0h5m1 0h1m1 0h1m4 0h1m1 0h5m2 0h4m1 0h1m1 0h3m1 0h4m1 0h2m3 0h2m1 0h1m1 0h2m1 0h1m1 0h1m9 0h1m5 0h2m2 0h2m2 0h5m1 0h5m2 0h1m1 0h2m-118 1h2m2 0h1m1 0h2m1 0h1m1 0h2m1 0h1m5 0h1m4 0h3m1 0h1m4 0h5m2 0h2m3 0h3m1 0h1m1 0h3m1 0h3m1 0h1m1 0h1m10 0h6m1 0h1m1 0h2m1 0h2m4 0h2m1 0h1m1 0h2m5 0h2m1 0h4m1 0h5m1 0h2m-114 1h1m1 0h1m2 0h2m2 0h2m1 0h1m1 0h2m1 0h1m1 0h1m4 0h1m1 0h1m1 0h1m3 0h1m1 0h1m1 0h6m3 0h2m1 0h1m1 0h5m3 0h1m5 0h1m2 0h1m2 0h2m4 0h1m1 0h9m5 0h2m1 0h1m1 0h2m1 0h1m4 0h1m2 0h1m2 0h1m1 0h2m-120 1h1m1 0h3m1 0h3m2 0h1m1 0h2m2 0h3m1 0h3m2 0h2m1 0h1m1 0h5m1 0h2m1 0h1m2 0h2m1 0h1m2 0h4m3 0h1m2 0h4m1 0h1m1 0h1m2 0h1m1 0h1m3 0h1m1 0h2m2 0h2m1 0h1m1 0h1m1 0h1m1 0h1m2 0h1m2 0h4m1 0h2m3 0h5m2 0h1m1 0h2m1 0h1m1 0h1m-120 1h1m1 0h1m1 0h1m1 0h1m1 0h4m1 0h1m1 0h1m3 0h3m1 0h1m1 0h1m1 0h2m1 0h5m2 0h1m3 0h1m1 0h1m5 0h2m2 0h1m1 0h1m1 0h1m1 0h1m1 0h1m1 0h7m1 0h4m1 0h4m1 0h1m2 0h1m1 0h1m1 0h1m1 0h2m3 0h2m2 0h1m2 0h3m4 0h3m1 0h1m1 0h2m1 0h1m-116 1h1m1 0h1m1 0h1m1 0h1m2 0h1m1 0h2m1 0h2m3 0h6m5 0h2m2 0h2m1 0h3m2 0h1m3 0h2m3 0h3m1 0h1m2 0h2m1 0h1m1 0h1m1 0h5m1 0h1m3 0h2m1 0h2m2 0h1m1 0h1m5 0h4m1 0h1m3 0h6m2 0h1m1 0h3m1 0h2m-119 1h1m3 0h2m1 0h1m1 0h1m1 0h1m1 0h1m1 0h5m1 0h4m2 0h1m5 0h1m1 0h1m1 0h2m5 0h1m1 0h1m1 0h2m2 0h3m2 0h3m4 0h1m1 0h3m1 0h3m1 0h2m3 0h1m5 0h1m1 0h1m1 0h4m2 0h1m2 0h1m1 0h4m1 0h1m1 0h1m1 0h1m5 0h2m1 0h2m-120 1h3m1 0h6m6 0h2m1 0h1m1 0h4m2 0h7m1 0h4m1 0h2m2 0h1m1 0h4m1 0h3m2 0h7m1 0h2m1 0h2m1 0h1m2 0h2m1 0h1m1 0h12m1 0h1m4 0h1m1 0h3m1 0h4m2 0h1m3 0h5m1 0h1m1 0h1m-120 1h2m1 0h1m3 0h1m2 0h1m2 0h4m4 0h2m4 0h1m3 0h1m1 0h1m1 0h1m1 0h3m3 0h2m2 0h2m1 0h1m1 0h1m1 0h2m3 0h1m2 0h3m4 0h3m2 0h4m3 0h1m1 0h1m3 0h1m6 0h2m1 0h3m1 0h1m1 0h5m3 0h1m3 0h1m2 0h1m-116 1h1m1 0h1m1 0h2m2 0h1m1 0h1m2 0h4m1 0h1m1 0h3m1 0h1m1 0h1m1 0h1m1 0h3m2 0h1m5 0h2m3 0h3m1 0h1m1 0h1m1 0h1m1 0h1m1 0h1m1 0h1m1 0h2m2 0h2m2 0h11m1 0h1m1 0h2m1 0h2m1 0h3m4 0h1m2 0h1m1 0h4m2 0h1m1 0h1m1 0h1m1 0h1m-119 1h3m1 0h1m3 0h2m1 0h1m1 0h2m1 0h1m1 0h1m1 0h3m2 0h1m1 0h2m3 0h2m6 0h5m1 0h1m1 0h1m1 0h2m1 0h1m2 0h1m3 0h2m1 0h5m2 0h1m2 0h1m2 0h2m1 0h1m1 0h2m1 0h1m3 0h4m6 0h1m1 0h1m1 0h1m2 0h1m3 0h4m3 0h1m1 0h2m-118 1h1m1 0h6m1 0h1m4 0h2m1 0h2m1 0h2m2 0h7m1 0h1m1 0h1m9 0h1m2 0h15m1 0h1m1 0h1m3 0h1m5 0h1m1 0h10m1 0h5m1 0h1m1 0h2m1 0h1m1 0h2m1 0h1m5 0h5m1 0h1m1 0h1m-121 1h3m1 0h1m2 0h1m1 0h1m1 0h1m3 0h1m2 0h1m1 0h4m1 0h2m1 0h2m1 0h1m1 0h1m2 0h4m5 0h1m1 0h1m1 0h1m6 0h1m2 0h1m6 0h4m1 0h1m1 0h5m1 0h2m1 0h1m3 0h4m1 0h2m3 0h1m1 0h2m4 0h2m1 0h2m1 0h1m2 0h2m1 0h2m-117 1h1m4 0h2m1 0h1m2 0h3m2 0h1m4 0h2m3 0h1m1 0h3m1 0h5m3 0h2m1 0h1m1 0h1m2 0h3m2 0h2m1 0h1m3 0h2m5 0h1m4 0h1m1 0h1m1 0h1m2 0h1m2 0h1m2 0h1m1 0h2m1 0h2m1 0h4m1 0h1m3 0h2m1 0h1m1 0h2m1 0h2m5 0h2m-120 1h1m1 0h4m3 0h1m3 0h1m1 0h2m1 0h2m4 0h1m1 0h5m1 0h1m3 0h2m1 0h2m1 0h2m1 0h2m4 0h1m1 0h1m1 0h1m3 0h1m3 0h2m1 0h1m1 0h2m4 0h2m1 0h3m1 0h2m2 0h1m3 0h3m1 0h1m1 0h1m4 0h4m1 0h1m3 0h2m2 0h2m3 0h1m1 0h1m-118 1h4m2 0h2m1 0h1m1 0h1m2 0h2m2 0h2m2 0h1m1 0h1m2 0h2m2 0h3m1 0h1m4 0h5m1 0h1m2 0h1m1 0h1m1 0h2m1 0h1m1 0h1m3 0h3m2 0h1m1 0h4m1 0h2m1 0h1m1 0h2m2 0h1m2 0h3m1 0h1m1 0h2m1 0h1m4 0h2m1 0h3m3 0h1m1 0h2m1 0h2m1 0h1m-121 1h1m1 0h3m2 0h2m1 0h1m1 0h1m2 0h1m2 0h2m1 0h2m5 0h1m3 0h1m1 0h2m1 0h2m1 0h1m1 0h1m4 0h1m1 0h4m4 0h1m1 0h3m3 0h1m1 0h1m1 0h2m2 0h1m1 0h1m1 0h2m2 0h1m2 0h3m1 0h1m1 0h3m3 0h2m1 0h1m1 0h1m1 0h2m7 0h3m1 0h1m-116 1h3m2 0h1m2 0h1m2 0h1m1 0h3m1 0h3m1 0h1m1 0h1m1 0h12m2 0h1m3 0h2m2 0h3m1 0h1m1 0h1m2 0h2m3 0h1m2 0h1m2 0h1m1 0h6m4 0h1m1 0h2m2 0h1m1 0h1m3 0h1m1 0h4m3 0h1m1 0h7m1 0h1m3 0h4m-119 1h1m1 0h1m5 0h1m1 0h1m2 0h1m2 0h1m2 0h2m1 0h1m5 0h1m3 0h4m1 0h1m4 0h3m3 0h1m1 0h2m3 0h3m2 0h1m3 0h1m1 0h2m1 0h1m2 0h1m2 0h1m2 0h2m3 0h1m1 0h1m1 0h2m1 0h2m6 0h1m1 0h4m1 0h1m4 0h1m2 0h2m3 0h1m-119 1h2m2 0h4m2 0h2m2 0h5m2 0h2m3 0h2m1 0h3m1 0h3m1 0h4m1 0h1m1 0h5m1 0h1m1 0h2m1 0h5m1 0h1m1 0h1m3 0h1m2 0h3m2 0h2m1 0h1m1 0h2m1 0h1m1 0h2m1 0h3m1 0h1m2 0h1m1 0h2m3 0h3m2 0h1m1 0h2m1 0h1m2 0h2m1 0h3m-120 1h1m1 0h2m2 0h1m2 0h2m1 0h1m1 0h1m2 0h1m1 0h4m1 0h2m1 0h1m8 0h1m1 0h1m2 0h3m2 0h1m1 0h2m1 0h1m1 0h1m3 0h1m1 0h1m5 0h2m1 0h2m2 0h1m1 0h1m2 0h3m3 0h1m1 0h1m1 0h5m2 0h4m3 0h1m4 0h1m2 0h1m1 0h3m1 0h1m-116 1h6m1 0h1m3 0h1m3 0h1m1 0h2m3 0h1m1 0h2m4 0h1m1 0h2m2 0h2m1 0h2m1 0h1m2 0h2m1 0h1m2 0h1m1 0h1m1 0h2m1 0h1m1 0h2m1 0h3m1 0h3m8 0h2m1 0h1m2 0h2m1 0h1m3 0h1m1 0h4m1 0h1m4 0h1m1 0h1m1 0h2m1 0h2m5 0h1m-119 1h1m3 0h2m1 0h3m5 0h1m2 0h2m3 0h1m3 0h2m1 0h8m2 0h3m3 0h1m4 0h1m2 0h2m2 0h1m1 0h1m2 0h4m1 0h2m6 0h1m1 0h2m1 0h1m1 0h1m1 0h3m1 0h3m1 0h1m1 0h1m3 0h5m1 0h2m3 0h1m3 0h1m3 0h3m-119 1h1m1 0h1m1 0h4m1 0h1m4 0h1m1 0h1m2 0h1m2 0h1m2 0h3m1 0h4m1 0h3m1 0h1m1 0h1m3 0h2m4 0h1m3 0h2m5 0h1m3 0h2m1 0h1m1 0h5m4 0h1m1 0h1m1 0h1m5 0h2m1 0h2m3 0h2m1 0h1m1 0h1m3 0h2m2 0h4m2 0h1m1 0h1m-121 1h1m1 0h1m1 0h2m1 0h2m4 0h3m3 0h5m1 0h1m5 0h3m2 0h1m1 0h1m3 0h1m2 0h6m1 0h1m1 0h1m1 0h1m1 0h2m4 0h1m3 0h4m1 0h4m2 0h2m3 0h1m1 0h1m1 0h3m5 0h2m4 0h1m1 0h1m3 0h1m1 0h5m1 0h2m-118 1h1m1 0h1m2 0h2m1 0h4m2 0h1m1 0h1m7 0h2m2 0h2m1 0h1m1 0h3m1 0h2m1 0h1m1 0h2m1 0h1m2 0h1m5 0h1m1 0h1m1 0h1m1 0h5m1 0h2m4 0h1m1 0h7m1 0h2m2 0h1m1 0h1m2 0h2m1 0h6m3 0h1m2 0h4m2 0h1m2 0h1m2 0h1m-119 1h1m3 0h1m4 0h2m6 0h1m2 0h2m1 0h1m3 0h1m1 0h1m1 0h3m1 0h1m1 0h2m4 0h2m2 0h1m1 0h1m1 0h1m1 0h1m1 0h1m1 0h2m1 0h7m3 0h3m3 0h1m2 0h1m1 0h1m1 0h1m3 0h5m1 0h1m1 0h1m4 0h3m2 0h1m4 0h1m2 0h2m1 0h3m-115 1h1m1 0h2m3 0h1m2 0h1m2 0h2m1 0h1m4 0h5m2 0h2m1 0h2m1 0h1m1 0h4m1 0h2m1 0h1m1 0h2m3 0h1m1 0h2m1 0h1m2 0h1m1 0h1m4 0h2m1 0h3m2 0h1m1 0h2m1 0h1m5 0h2m1 0h3m2 0h1m1 0h1m2 0h1m1 0h3m1 0h2m3 0h3m2 0h1m-117 1h4m1 0h1m1 0h3m2 0h1m3 0h2m1 0h3m3 0h1m3 0h1m1 0h2m2 0h1m1 0h2m1 0h1m3 0h2m3 0h1m1 0h3m4 0h1m3 0h1m2 0h1m2 0h1m1 0h1m1 0h3m1 0h1m1 0h1m5 0h1m1 0h2m1 0h1m1 0h2m1 0h1m1 0h2m2 0h4m1 0h1m2 0h1m1 0h2m2 0h3m-116 1h1m1 0h2m2 0h2m3 0h3m2 0h3m2 0h4m1 0h4m1 0h1m2 0h1m1 0h1m2 0h2m3 0h1m1 0h2m3 0h1m1 0h1m2 0h2m3 0h2m3 0h3m1 0h3m1 0h4m1 0h2m2 0h1m1 0h1m2 0h2m1 0h4m1 0h1m4 0h3m1 0h2m1 0h2m3 0h2m-117 1h2m1 0h2m2 0h1m1 0h1m5 0h6m1 0h3m4 0h1m1 0h4m2 0h1m2 0h1m1 0h1m3 0h1m1 0h3m6 0h1m1 0h3m1 0h5m2 0h1m1 0h3m1 0h3m1 0h1m3 0h1m1 0h5m3 0h1m1 0h2m1 0h4m1 0h1m3 0h2m2 0h2m2 0h2m-119 1h2m1 0h1m1 0h3m2 0h1m4 0h1m1 0h4m2 0h5m3 0h3m3 0h2m1 0h3m2 0h7m1 0h2m2 0h1m1 0h5m1 0h1m2 0h1m3 0h1m1 0h1m1 0h1m2 0h1m1 0h4m3 0h1m1 0h1m1 0h2m2 0h1m1 0h2m1 0h1m1 0h1m1 0h2m1 0h2m2 0h1m1 0h2m2 0h1m-119 1h2m3 0h1m2 0h2m3 0h2m3 0h1m1 0h2m3 0h2m1 0h1m2 0h2m1 0h3m3 0h1m1 0h1m1 0h1m1 0h13m1 0h3m4 0h1m1 0h1m1 0h1m1 0h2m2 0h2m2 0h2m1 0h1m1 0h1m1 0h1m1 0h2m1 0h1m1 0h4m1 0h1m2 0h2m3 0h4m2 0h1m1 0h2m1 0h1m-120 1h2m1 0h1m1 0h2m1 0h2m4 0h1m2 0h1m4 0h1m2 0h2m4 0h2m1 0h3m1 0h5m3 0h1m5 0h2m1 0h1m2 0h1m2 0h3m2 0h1m3 0h4m1 0h1m4 0h1m1 0h3m1 0h1m1 0h1m3 0h3m1 0h2m3 0h1m2 0h6m1 0h2m2 0h1m2 0h1m-119 1h1m1 0h4m1 0h2m1 0h2m3 0h3m1 0h2m2 0h1m2 0h1m2 0h3m1 0h2m4 0h1m1 0h3m4 0h1m2 0h1m2 0h1m1 0h2m1 0h1m2 0h2m2 0h1m2 0h1m1 0h3m1 0h1m7 0h1m1 0h2m1 0h1m1 0h2m1 0h1m3 0h2m1 0h4m1 0h1m4 0h1m2 0h2m1 0h1m1 0h1m-118 1h3m2 0h1m4 0h1m1 0h2m1 0h2m1 0h1m2 0h1m2 0h2m1 0h10m2 0h3m2 0h2m2 0h4m3 0h8m1 0h3m2 0h2m4 0h1m1 0h2m1 0h1m1 0h6m1 0h3m3 0h1m1 0h2m1 0h3m1 0h1m2 0h3m1 0h9m-113 1h3m1 0h1m2 0h5m1 0h1m1 0h2m2 0h2m3 0h1m1 0h1m2 0h1m4 0h3m1 0h1m1 0h1m3 0h3m1 0h1m3 0h1m2 0h1m1 0h3m2 0h4m1 0h1m2 0h1m2 0h1m1 0h2m3 0h5m2 0h2m1 0h2m2 0h1m4 0h2m1 0h3m3 0h1m-117 1h7m1 0h5m2 0h1m1 0h4m1 0h1m1 0h1m1 0h1m1 0h1m1 0h1m1 0h2m3 0h1m3 0h6m3 0h1m2 0h2m1 0h1m1 0h1m1 0h1m2 0h2m4 0h1m1 0h2m5 0h1m1 0h1m1 0h3m1 0h1m1 0h1m3 0h1m1 0h3m2 0h1m1 0h1m2 0h1m1 0h4m2 0h1m1 0h1m1 0h4m-120 1h1m5 0h1m1 0h5m1 0h3m1 0h1m1 0h2m1 0h1m1 0h1m1 0h2m3 0h2m1 0h1m4 0h1m3 0h1m2 0h4m2 0h4m3 0h2m3 0h1m3 0h1m3 0h2m1 0h2m3 0h1m1 0h2m3 0h4m6 0h6m1 0h1m4 0h1m1 0h1m3 0h1m1 0h1m1 0h1m-121 1h1m1 0h3m1 0h1m1 0h2m2 0h4m4 0h2m1 0h1m1 0h1m2 0h5m1 0h1m1 0h1m1 0h5m1 0h4m2 0h11m1 0h2m1 0h2m1 0h1m1 0h4m3 0h2m1 0h2m2 0h7m1 0h1m3 0h2m1 0h2m1 0h3m2 0h2m1 0h1m1 0h5m1 0h1m1 0h1m-121 1h1m1 0h3m1 0h1m2 0h1m1 0h1m1 0h1m3 0h1m2 0h1m2 0h1m1 0h2m1 0h1m1 0h1m2 0h1m1 0h1m1 0h2m1 0h1m1 0h6m1 0h1m1 0h3m1 0h1m2 0h2m1 0h1m5 0h2m7 0h3m1 0h4m1 0h3m2 0h1m1 0h2m2 0h1m1 0h4m1 0h2m2 0h8m5 0h1m-121 1h1m1 0h3m1 0h1m2 0h1m1 0h1m2 0h2m1 0h1m1 0h1m1 0h5m4 0h1m2 0h2m1 0h2m1 0h3m3 0h1m1 0h2m1 0h1m4 0h1m1 0h3m2 0h2m2 0h2m3 0h2m3 0h1m3 0h1m1 0h1m1 0h2m1 0h1m1 0h1m2 0h1m1 0h1m1 0h2m6 0h1m1 0h1m1 0h1m3 0h1m2 0h1m1 0h3m-120 1h1m5 0h1m2 0h2m2 0h2m1 0h2m1 0h2m2 0h5m4 0h3m1 0h2m1 0h1m2 0h3m1 0h2m2 0h2m1 0h1m1 0h1m5 0h3m2 0h7m2 0h2m6 0h1m2 0h6m5 0h2m1 0h4m3 0h1m2 0h1m4 0h1m2 0h2m-120 1h7m3 0h1m2 0h1m1 0h2m2 0h1m2 0h1m1 0h1m1 0h2m3 0h1m1 0h1m3 0h2m2 0h1m2 0h1m1 0h3m4 0h1m2 0h5m6 0h1m1 0h1m1 0h1m2 0h2m1 0h2m1 0h1m1 0h4m1 0h3m2 0h1m3 0h1m1 0h1m2 0h1m3 0h1m2 0h6m1 0h2m1 0h3"/></svg>
